<svg id="Layer_1" data-name="Layer 1" xmlns="http://www.w3.org/2000/svg" height="24" width="119" viewBox="0 0 119 24"><defs><style>.cls-1{fill:#29abe2;}.cls-2{fill:#3a3a3a;}</style></defs><path class="cls-1" d="M1.11,8.09A1.11,1.11,0,0,0,0,9.2v5.58a1.11,1.11,0,1,0,2.22,0V9.2A1.11,1.11,0,0,0,1.11,8.09Z"/><path class="cls-1" d="M5.64,5.43a1.11,1.11,0,0,0-1.11,1.1V17.45a1.11,1.11,0,1,0,2.22,0V6.53A1.11,1.11,0,0,0,5.64,5.43Z"/><path class="cls-1" d="M10.19.1A1.11,1.11,0,0,0,9.06,1.19v21.6a1.11,1.11,0,0,0,2.22.14V1.21A1.1,1.1,0,0,0,10.19.1Z"/><path class="cls-1" d="M14.71,3.65A1.11,1.11,0,0,0,13.6,4.76V19.21a1.11,1.11,0,1,0,2.22,0V4.76a1.11,1.11,0,0,0-1.11-1.11Z"/><path class="cls-1" d="M19.22,7.2a1.12,1.12,0,0,0-1.1,1.12v7.35a1.11,1.11,0,0,0,2.22,0V8.34A1.11,1.11,0,0,0,19.25,7.2Z"/><path class="cls-1" d="M37.35,7.2a1.11,1.11,0,0,0-1.11,1.11v7.36a1.11,1.11,0,1,0,2.22,0h0V8.34A1.11,1.11,0,0,0,37.38,7.2Z"/><path class="cls-1" d="M23.76.1a1.11,1.11,0,0,0-1.11,1.11V22.79a1.11,1.11,0,1,0,2.22,0V1.21A1.11,1.11,0,0,0,23.76.1Z"/><path class="cls-1" d="M32.82,3.65a1.11,1.11,0,0,0-1.11,1.11V19.21a1.11,1.11,0,0,0,2.22.14V4.76A1.11,1.11,0,0,0,32.82,3.65Z"/><path class="cls-1" d="M28.29,5.43a1.11,1.11,0,0,0-1.11,1.1V17.45a1.11,1.11,0,0,0,2.22,0V6.53A1.11,1.11,0,0,0,28.29,5.43Z"/><path class="cls-2" d="M42.84,19.63c-.53,0-.76-.24-.76-.77V5.1c0-.53.23-.77.76-.77h3.3c.52,0,.76.24.76.77V9.69h3.55V5.09c0-.53.23-.76.76-.76H54.5c.54,0,.77.23.77.77V18.86c0,.53-.23.77-.77.77H51.21c-.53,0-.76-.24-.76-.77V14.14H46.9v4.71c0,.54-.23.77-.76.77Z"/><path class="cls-2" d="M61.77,19.63H58.64c-.52,0-.76-.24-.76-.77V13.25a9.81,9.81,0,0,1,.83-3.4L60.56,5a1,1,0,0,1,1.09-.7h5.71A1,1,0,0,1,68.44,5l1.85,4.82a9.81,9.81,0,0,1,.83,3.4v5.61c0,.53-.24.77-.77.77H67.14c-.57,0-.82-.24-.82-.77v-3H62.56v3C62.53,19.4,62.3,19.63,61.77,19.63Zm1-7.61h3.34l-1-3.23c-.11-.26-.24-.36-.4-.36h-.54c-.16,0-.29.1-.4.36Z"/><path class="cls-2" d="M74.47,19.63c-.53,0-.77-.24-.76-.77V5.1c0-.52.23-.76.77-.76h3.41a1,1,0,0,1,1,.64l1.91,3.47c.15.25.21.36.38.36h.19c.17,0,.24-.11.39-.36L83.63,5a1,1,0,0,1,1-.63h3.44c.53,0,.76.23.76.76V18.88c0,.53-.23.76-.76.76H84.78c-.55,0-.77-.23-.77-.76V11.4l-1.25,2.32a1.11,1.11,0,0,1-1.13.67h-.85a1.1,1.1,0,0,1-1.12-.68L78.4,11.39v7.48c0,.54-.23.77-.76.77Z"/><path class="cls-2" d="M92.5,19.63c-.53,0-.76-.23-.76-.77V5.1c0-.53.23-.77.76-.77h7.1c3.19,0,4.19,1.45,4.18,3.55v1c0,1.19-.3,2-1.19,2.42a2.83,2.83,0,0,1,2.57,3.08v4.52c0,.53-.24.76-.77.76H101.1c-.53,0-.76-.23-.76-.76V15.63c0-.64-.22-.91-.81-.91h-3v4.17c0,.53-.23.76-.77.76Zm4-8.75h1.6c.74,0,.93-.42.93-1V9.16c0-.57-.19-1-.93-1H96.55Z"/><path class="cls-2" d="M107.91,19.65c-.54,0-.77-.23-.77-.76V16.4c0-.53.24-.76.77-.76h5.71a.56.56,0,0,0,.56-.55.13.13,0,0,0,0-.06c0-.5-.19-.69-.55-.73l-3.19-.45c-2-.3-3.29-1.15-3.28-3.53V8.1c0-2.42,1.64-3.74,4.39-3.74h5.95c.53,0,.77.24.77.77V7.66c0,.53-.23.76-.76.76h-5A.57.57,0,0,0,112,9a.28.28,0,0,0,0,.09.61.61,0,0,0,.56.68h0l3.16.43c2,.3,3.31,1.15,3.31,3.53v2.22c0,2.42-1.66,3.74-4.4,3.74Z"/></svg>