<?xml version="1.0" encoding="utf-8"?>
<!-- Generator: Adobe Illustrator 25.0.1, SVG Export Plug-In . SVG Version: 6.00 Build 0)  -->
<svg version="1.1" id="Layer_1" xmlns="http://www.w3.org/2000/svg" xmlns:xlink="http://www.w3.org/1999/xlink" x="0px" y="0px"
	 viewBox="0 0 119 24" style="enable-background:new 0 0 119 24;" xml:space="preserve">
<style type="text/css">
	.st0{fill:#FFFFFF;}
</style>
<path class="st0" d="M1.1,8.1C0.5,8.1,0,8.6,0,9.2v5.6c0,0.6,0.5,1.1,1.1,1.1s1.1-0.5,1.1-1.1l0,0V9.2C2.2,8.6,1.7,8.1,1.1,8.1z"/>
<path class="st0" d="M5.6,5.4C5,5.4,4.5,5.9,4.5,6.5v10.9c0,0.6,0.5,1.1,1.1,1.1s1.1-0.5,1.1-1.1V6.5C6.7,5.9,6.2,5.4,5.6,5.4z"/>
<path class="st0" d="M10.2,0.1c-0.6,0-1.1,0.5-1.1,1.1c0,0,0,0,0,0v21.6c0,0.6,0.4,1.1,1,1.2c0.6,0,1.1-0.4,1.2-1V1.2
	C11.3,0.6,10.8,0.1,10.2,0.1C10.2,0.1,10.2,0.1,10.2,0.1z"/>
<path class="st0" d="M14.7,3.7c-0.6,0-1.1,0.5-1.1,1.1v14.4c0,0.6,0.5,1.1,1.1,1.1c0.6,0,1.1-0.5,1.1-1.1V4.8
	C15.8,4.1,15.3,3.7,14.7,3.7z"/>
<path class="st0" d="M19.2,7.2c-0.6,0-1.1,0.5-1.1,1.1v7.4c0,0.6,0.5,1.1,1.1,1.1c0.6,0,1.1-0.5,1.1-1.1V8.3
	C20.4,7.7,19.9,7.2,19.2,7.2C19.3,7.2,19.3,7.2,19.2,7.2L19.2,7.2z"/>
<path class="st0" d="M37.3,7.2c-0.6,0-1.1,0.5-1.1,1.1l0,0v7.4c0,0.6,0.5,1.1,1.1,1.1s1.1-0.5,1.1-1.1l0,0l0,0V8.3
	C38.5,7.7,38,7.2,37.3,7.2C37.4,7.2,37.4,7.2,37.3,7.2L37.3,7.2z"/>
<path class="st0" d="M23.8,0.1c-0.6,0-1.1,0.5-1.1,1.1c0,0,0,0,0,0v21.6c0,0.6,0.5,1.1,1.1,1.1c0.6,0,1.1-0.5,1.1-1.1c0,0,0,0,0,0
	V1.2C24.9,0.6,24.4,0.1,23.8,0.1z"/>
<path class="st0" d="M32.8,3.7c-0.6,0-1.1,0.5-1.1,1.1c0,0,0,0,0,0v14.4c0,0.6,0.4,1.1,1,1.2s1.1-0.4,1.2-1l0,0V4.8
	C33.9,4.1,33.4,3.7,32.8,3.7L32.8,3.7z"/>
<path class="st0" d="M28.3,5.4c-0.6,0-1.1,0.5-1.1,1.1v10.9c0,0.6,0.5,1.1,1.1,1.1c0.6,0,1.1-0.5,1.1-1.1V6.5
	C29.4,5.9,28.9,5.4,28.3,5.4z"/>
<path class="st0" d="M42.8,19.6c-0.5,0-0.8-0.2-0.8-0.8V5.1c0-0.5,0.2-0.8,0.8-0.8h3.3c0.5,0,0.8,0.2,0.8,0.8v4.6h3.5V5.1
	c0-0.5,0.2-0.8,0.8-0.8h3.3c0.5,0,0.8,0.2,0.8,0.8v13.8c0,0.5-0.2,0.8-0.8,0.8h-3.3c-0.5,0-0.8-0.2-0.8-0.8v-4.7h-3.5v4.7
	c0,0.5-0.2,0.8-0.8,0.8L42.8,19.6z"/>
<path class="st0" d="M61.8,19.6h-3.1c-0.5,0-0.8-0.2-0.8-0.8v-5.6c0.1-1.2,0.4-2.3,0.8-3.4L60.6,5c0.1-0.5,0.6-0.8,1.1-0.7h5.7
	c0.5-0.1,0.9,0.2,1.1,0.7l1.8,4.8c0.5,1.1,0.8,2.2,0.8,3.4v5.6c0,0.5-0.2,0.8-0.8,0.8h-3.2c-0.6,0-0.8-0.2-0.8-0.8v-3h-3.8v3
	C62.5,19.4,62.3,19.6,61.8,19.6z M62.8,12h3.3l-1-3.2c-0.1-0.3-0.2-0.4-0.4-0.4h-0.5c-0.2,0-0.3,0.1-0.4,0.4L62.8,12z"/>
<path class="st0" d="M74.5,19.6c-0.5,0-0.8-0.2-0.8-0.8V5.1c0-0.5,0.2-0.8,0.8-0.8h3.4c0.4,0,0.8,0.2,1,0.6l1.9,3.5
	C81,8.7,81,8.8,81.2,8.8h0.2c0.2,0,0.2-0.1,0.4-0.4L83.6,5c0.2-0.4,0.6-0.7,1-0.6h3.4c0.5,0,0.8,0.2,0.8,0.8v13.7
	c0,0.5-0.2,0.8-0.8,0.8h-3.3c-0.6,0-0.8-0.2-0.8-0.8v-7.5l-1.2,2.3c-0.2,0.4-0.6,0.7-1.1,0.7h-0.8c-0.5,0-0.9-0.2-1.1-0.7l-1.3-2.3
	v7.5c0,0.5-0.2,0.8-0.8,0.8L74.5,19.6z"/>
<path class="st0" d="M92.5,19.6c-0.5,0-0.8-0.2-0.8-0.8V5.1c0-0.5,0.2-0.8,0.8-0.8h7.1c3.2,0,4.2,1.4,4.2,3.6v1c0,1.2-0.3,2-1.2,2.4
	c1.6,0.1,2.7,1.5,2.6,3.1c0,0,0,0,0,0v4.5c0,0.5-0.2,0.8-0.8,0.8h-3.3c-0.5,0-0.8-0.2-0.8-0.8v-3.3c0-0.6-0.2-0.9-0.8-0.9h-3v4.2
	c0,0.5-0.2,0.8-0.8,0.8L92.5,19.6z M96.5,10.9h1.6c0.7,0,0.9-0.4,0.9-1V9.2c0-0.6-0.2-1-0.9-1h-1.5L96.5,10.9z"/>
<path class="st0" d="M107.9,19.6c-0.5,0-0.8-0.2-0.8-0.8v-2.5c0-0.5,0.2-0.8,0.8-0.8h5.7c0.3,0,0.6-0.2,0.6-0.6c0,0,0,0,0-0.1
	c0-0.5-0.2-0.7-0.6-0.7l-3.2-0.4c-2-0.3-3.3-1.1-3.3-3.5V8.1c0-2.4,1.6-3.7,4.4-3.7h5.9c0.5,0,0.8,0.2,0.8,0.8v2.5
	c0,0.5-0.2,0.8-0.8,0.8h-5c-0.3,0-0.5,0.3-0.5,0.6c0,0,0,0.1,0,0.1c0,0.3,0.2,0.6,0.5,0.7c0,0,0,0,0,0l0,0l3.2,0.4
	c2,0.3,3.3,1.1,3.3,3.5V16c0,2.4-1.7,3.7-4.4,3.7L107.9,19.6z"/>
</svg>
